<svg xmlns="http://www.w3.org/2000/svg" viewBox="0 0 40 40" width="128" height="128" role="img" aria-label="SolarHub logo">
  <defs>
    <linearGradient id="g" x1="0" x2="1" y1="0" y2="1">
      <stop offset="0" stop-color="#ffb366" />
      <stop offset="1" stop-color="#f97316" />
    </linearGradient>
    <radialGradient id="glow" cx="50%" cy="50%" r="60%">
      <stop offset="0%" stop-color="#f97316" stop-opacity="0.9" />
      <stop offset="60%" stop-color="#f97316" stop-opacity="0.4" />
      <stop offset="100%" stop-color="#f97316" stop-opacity="0" />
    </radialGradient>
  </defs>

  <!-- glow -->
  <circle cx="20" cy="20" r="14" fill="url(#glow)" />

  <!-- rays -->
  <g stroke="#f97316" stroke-width="2" stroke-linecap="round" opacity="0.9">
    <line x1="20" y1="4" x2="20" y2="8" transform="rotate(0 20 20)" />
    <line x1="20" y1="4" x2="20" y2="8" transform="rotate(45 20 20)" />
    <line x1="20" y1="4" x2="20" y2="8" transform="rotate(90 20 20)" />
    <line x1="20" y1="4" x2="20" y2="8" transform="rotate(135 20 20)" />
    <line x1="20" y1="4" x2="20" y2="8" transform="rotate(180 20 20)" />
    <line x1="20" y1="4" x2="20" y2="8" transform="rotate(225 20 20)" />
    <line x1="20" y1="4" x2="20" y2="8" transform="rotate(270 20 20)" />
    <line x1="20" y1="4" x2="20" y2="8" transform="rotate(315 20 20)" />
  </g>

  <!-- core -->
  <circle cx="20" cy="20" r="8" fill="url(#g)" />
</svg>